<?xml version="1.0" standalone="no"?>
<!DOCTYPE svg PUBLIC "-//W3C//DTD SVG 20010904//EN"
 "http://www.w3.org/TR/2001/REC-SVG-20010904/DTD/svg10.dtd">
<svg version="1.0" xmlns="http://www.w3.org/2000/svg"
 width="1600.000000pt" height="1600.000000pt" viewBox="0 0 1600.000000 1600.000000"
 preserveAspectRatio="xMidYMid meet">
<metadata>
Created by potrace 1.11, written by Peter Selinger 2001-2013
</metadata>
<g transform="translate(0.000000,1600.000000) scale(0.100000,-0.100000)"
fill="#000000" stroke="none">
<path d="M0 8000 l0 -8000 8000 0 8000 0 0 8000 0 8000 -8000 0 -8000 0 0
-8000z m8451 5080 c1488 -74 2888 -494 4139 -1242 580 -347 1174 -805 1636
-1263 139 -137 171 -184 199 -292 81 -309 -191 -607 -511 -562 -113 16 -179
55 -327 196 -319 304 -592 533 -893 751 -992 718 -2129 1192 -3349 1396 -653
110 -1405 135 -2080 70 -1504 -144 -2952 -722 -4145 -1652 -239 -187 -421
-345 -652 -569 -70 -68 -149 -137 -175 -153 -185 -118 -442 -83 -584 79 -127
143 -154 333 -72 510 40 88 360 399 708 687 1397 1158 3100 1859 4910 2019
382 34 830 43 1196 25z m54 -2960 c731 -69 1370 -240 2017 -541 566 -262 1133
-652 1577 -1084 142 -139 176 -189 191 -279 37 -235 -183 -440 -410 -382 -87
22 -114 42 -259 179 -848 806 -1904 1294 -3081 1422 -201 22 -673 31 -885 16
-1247 -87 -2380 -584 -3276 -1436 -163 -156 -218 -186 -331 -186 -118 0 -218
49 -278 137 -49 70 -63 123 -58 217 6 115 31 157 170 293 962 942 2281 1539
3633 1644 77 6 160 12 185 14 85 7 695 -3 805 -14z m-385 -2694 c19 -7 1072
-659 2340 -1450 1748 -1090 2316 -1449 2350 -1485 88 -92 93 -218 13 -311 -51
-60 -104 -84 -183 -85 -57 0 -73 5 -130 37 -36 20 -1055 655 -2265 1411
l-2199 1374 -76 -47 c-2419 -1515 -4441 -2772 -4473 -2781 -48 -13 -118 -4
-167 21 -141 73 -169 273 -53 381 38 36 4648 2918 4693 2935 45 16 105 17 150
0z m962 -4264 l33 -32 0 -750 0 -750 -33 -32 -32 -33 -995 -3 c-1100 -3 -1034
-6 -1075 61 -19 31 -20 56 -20 755 0 798 -3 762 63 802 31 20 54 20 1029 18
l998 -3 32 -33z"/>
</g>
</svg>
